# File created by Blade
# Date/Time:  Tue Sep 30 19:28:31 2014
#---------------------------------------------------------
:version 1.10
:name HOM
:units
  mass 1.0
  length 1.000000
  angle deg
:documentation
     Acclaim Skeleton File
:root
   axis xyz
   order TX TY TZ RX RY RZ
   position 0.000000 0.000000 0.000000
   orientation 0 0 0
:bonedata
   begin
      id 1
      name RightUpLeg_dum
      direction -1.000000 0.000000 0.000000
      length 3.766986
      axis 0.0 0.0 0.0 xyz
   end
   begin
      id 2
      name LeftUpLeg_dum
      direction 1.000000 0.000000 0.000000
      length 3.766986
      axis 0.0 0.0 0.0 xyz
   end
   begin
      id 3
      name Spine_dum
      direction 0.000000 1.000000 0.000000
      length 7.779697
      axis 0.0 0.0 0.0 xyz
   end
   begin
      id 4
      name RightUpLeg
      direction 0.000000 -1.000000 0.000000
      length 18.017682
      axis 0.0 0.0 0.0 xyz
      dof rx ry rz
   end
   begin
      id 5
      name RightLeg
      direction 0.000000 -1.000000 0.000000
      length 16.881075
      axis 0.0 0.0 0.0 xyz
      dof rx ry rz
   end
   begin
      id 6
      name RightFoot
      direction 0.000000 -0.258819 0.965926
      length 5.770812
      axis 15.0 0.0 0.0 xyz
      dof rx ry rz
   end
   begin
      id 7
      name RightToeBase
      direction 0.000000 0.000000 1.000000
      length 2.952750
      axis 0.0 0.0 0.0 xyz
      dof rx ry rz
   end
   begin
      id 8
      name LeftUpLeg
      direction 0.000000 -1.000000 0.000000
      length 18.017682
      axis 0.0 0.0 0.0 xyz
      dof rx ry rz
   end
   begin
      id 9
      name LeftLeg
      direction 0.000000 -1.000000 0.000000
      length 16.881075
      axis 0.0 0.0 0.0 xyz
      dof rx ry rz
   end
   begin
      id 10
      name LeftFoot
      direction 0.000000 -0.258819 0.965926
      length 5.770812
      axis 15.0 0.0 0.0 xyz
      dof rx ry rz
   end
   begin
      id 11
      name LeftToeBase
      direction 0.000000 0.000000 1.000000
      length 2.952750
      axis 0.0 0.0 0.0 xyz
      dof rx ry rz
   end
   begin
      id 12
      name Spine
      direction 0.000000 1.000000 0.000000
      length 0.000000
      axis 0.0 0.0 0.0 xyz
      dof rx ry rz
   end
   begin
      id 13
      name Spine_dum1
      direction 0.000000 1.000000 0.000000
      length 10.941760
      axis 0.0 0.0 0.0 xyz
   end
   begin
      id 14
      name Spine_dum2
      direction 0.000000 1.000000 0.000000
      length 10.941760
      axis 0.0 0.0 0.0 xyz
   end
   begin
      id 15
      name Spine_dum3
      direction 0.000000 1.000000 0.000000
      length 16.646042
      axis 0.0 0.0 0.0 xyz
   end
   begin
      id 16
      name RightShoulder
      direction -1.000000 0.000000 0.000000
      length 7.708937
      axis 0.0 0.0 90.0 xyz
      dof rx ry rz
   end
   begin
      id 17
      name RightArm
      direction -1.000000 0.000000 0.000000
      length 11.521345
      axis 0.0 0.0 90.0 xyz
      dof rx ry rz
   end
   begin
      id 18
      name RightForeArm
      direction -1.000000 0.000000 0.000000
      length 10.175898
      axis 0.0 0.0 90.0 xyz
      dof ry rz rx
   end
   begin
      id 19
      name RightHand
      direction -1.000000 0.000000 0.000000
      length 0.000000
      axis 0.0 0.0 90.0 xyz
      dof rx ry rz
   end
   begin
      id 20
      name RightHand_dum1
      direction -1.000000 0.000000 0.000000
      length 3.937000
      axis 0.0 0.0 90.0 xyz
   end
   begin
      id 21
      name RightHand_dum2
      direction 0.000000 0.000000 0.000000
      length 0.000000
      axis 0.0 0.0 90.0 xyz
   end
   begin
      id 22
      name RightHandThumb1
      direction 0.000000 0.000000 1.000000
      length 3.937000
      axis 0.0 0.0 90.0 xyz
      dof rx rz ry
   end
   begin
      id 23
      name LeftShoulder
      direction 1.000000 0.000000 0.000000
      length 7.708937
      axis 0.0 0.0 -90.0 xyz
      dof rx ry rz
   end
   begin
      id 24
      name LeftArm
      direction 1.000000 0.000000 0.000000
      length 11.521345
      axis 0.0 0.0 -90.0 xyz
      dof rx ry rz
   end
   begin
      id 25
      name LeftForeArm
      direction 1.000000 0.000000 0.000000
      length 10.175898
      axis 0.0 0.0 -90.0 xyz
      dof ry rz rx
   end
   begin
      id 26
      name LeftHand
      direction 1.000000 0.000000 0.000000
      length 0.000000
      axis 0.0 0.0 -90.0 xyz
      dof rx ry rz
   end
   begin
      id 27
      name LeftHand_dum1
      direction 1.000000 0.000000 0.000000
      length 3.937000
      axis 0.0 0.0 -90.0 xyz
   end
   begin
      id 28
      name LeftHand_dum2
      direction 0.000000 0.000000 0.000000
      length 0.000000
      axis 0.0 0.0 -90.0 xyz
   end
   begin
      id 29
      name LeftHandThumb1
      direction 0.000000 0.000000 1.000000
      length 3.937000
      axis 0.0 0.0 -90.0 xyz
      dof rx rz ry
   end
   begin
      id 30
      name Head
      direction 0.000000 1.000000 0.000000
      length 4.527550
      axis 0.0 0.0 0.0 xyz
      dof rx ry rz
   end
:hierarchy
   begin
      root RightUpLeg_dum LeftUpLeg_dum Spine_dum
      RightUpLeg_dum RightUpLeg
      LeftUpLeg_dum LeftUpLeg
      Spine_dum Spine
      RightUpLeg RightLeg
      RightLeg RightFoot
      RightFoot RightToeBase
      LeftUpLeg LeftLeg
      LeftLeg LeftFoot
      LeftFoot LeftToeBase
      Spine Spine_dum1 Spine_dum2 Spine_dum3
      Spine_dum1 RightShoulder
      Spine_dum2 LeftShoulder
      Spine_dum3 Head
      RightShoulder RightArm
      RightArm RightForeArm
      RightForeArm RightHand
      RightHand RightHand_dum1 RightHand_dum2
      RightHand_dum2 RightHandThumb1
      LeftShoulder LeftArm
      LeftArm LeftForeArm
      LeftForeArm LeftHand
      LeftHand LeftHand_dum1 LeftHand_dum2
      LeftHand_dum2 LeftHandThumb1
   end

# File created by Blade
# Date/Time:  Mon Sep 22 15:39:46 2014
# Frame Rate: 120.000 fps
#------------------------------------------------------
:FULLY-SPECIFIED
:DEGREES
697
root 2.169691 37.084871 2.524278 -1.343632 -0.034237 1.658505
RightUpLeg 10.041399 -8.000514 -3.634007
RightLeg -5.215548 -0.000000 0.000000
RightFoot -12.795643 -15.130532 16.876022
RightToeBase 15.560975 -0.000000 -0.000000
LeftUpLeg 7.391671 -1.296671 1.643316
LeftLeg -2.164802 -0.000000 0.000000
LeftFoot -9.734133 13.824568 -17.537491
LeftToeBase 9.813748 -0.000000 -0.000000
Spine -3.055243 21.324137 -4.905318
RightShoulder 13.506782 16.968750 -40.377085
RightArm 71.921965 18.961229 115.591018
RightForeArm 93.088614 -0.000000 115.293901
RightHand 22.040984 -0.000000 -14.403311
RightHandThumb1 -24.326973 -0.000000 -32.862282
LeftShoulder 0.703326 34.560768 3.071570
LeftArm 51.686282 26.549880 -53.468827
LeftForeArm 23.782186 -0.000000 17.811478
LeftHand -13.349464 -0.000000 -9.343045
LeftHandThumb1 -26.253704 0.000000 33.147579
Head -6.988130 -17.995802 0.561655
698
root 2.187648 37.092062 2.510390 -1.168513 0.344312 1.623739
RightUpLeg 9.901184 -8.254887 -3.601600
RightLeg -5.205600 -0.000000 0.000000
RightFoot -12.772826 -15.219377 16.984696
RightToeBase 15.650771 -0.000000 -0.000000
LeftUpLeg 7.144059 -1.558167 1.660295
LeftLeg -2.171075 -0.000000 0.000000
LeftFoot -9.635731 13.743540 -17.474035
LeftToeBase 9.834829 -0.000000 -0.000000
Spine -3.240626 21.438628 -4.916933
RightShoulder 13.101146 17.590329 -40.219568
RightArm 72.407402 20.635238 118.740524
RightForeArm 93.263607 -0.000000 115.807428
RightHand 23.152691 0.000000 -14.515635
RightHandThumb1 -24.326973 -0.000000 -32.862282
LeftShoulder 0.732568 34.464505 3.056164
LeftArm 51.739329 26.717801 -53.278845
LeftForeArm 23.524273 -0.000000 18.018990
LeftHand -13.257101 -0.000000 -9.428180
LeftHandThumb1 -26.253704 0.000000 33.147579
Head -6.940104 -18.178367 0.280819
699
root 2.203506 37.099046 2.498919 -0.990417 0.724664 1.573746
RightUpLeg 9.762955 -8.501274 -3.545735
RightLeg -5.200259 -0.000000 0.000000
RightFoot -12.754211 -15.319782 17.112485
RightToeBase 15.606238 -0.000000 -0.000000
LeftUpLeg 6.907064 -1.860123 1.692513
LeftLeg -2.196190 -0.000000 0.000000
LeftFoot -9.556772 13.704228 -17.439271
LeftToeBase 9.863132 -0.000000 -0.000000
Spine -3.443617 21.605217 -4.927727
RightShoulder 12.573761 17.905760 -40.047438
RightArm 73.080217 22.143028 121.350267
RightForeArm 93.248070 -0.000000 116.199067
RightHand 24.143157 0.000000 -14.841282
RightHandThumb1 -24.326973 -0.000000 -32.862282
LeftShoulder 0.849931 34.359824 3.117208
LeftArm 51.692293 26.837883 -53.211915
LeftForeArm 23.501525 -0.000000 18.293940
LeftHand -13.274571 0.000000 -9.621564
LeftHandThumb1 -26.253704 0.000000 33.147579
Head -6.827332 -18.383401 -0.010978
700
root 2.221534 37.104663 2.486245 -0.804185 1.144514 1.521272
RightUpLeg 9.616660 -8.774171 -3.487309
RightLeg -5.188305 -0.000000 0.000000
RightFoot -12.757126 -15.440090 17.240192
RightToeBase 15.629086 -0.000000 -0.000000
LeftUpLeg 6.656393 -2.185757 1.727168
LeftLeg -2.223714 -0.000000 0.000000
LeftFoot -9.476137 13.642656 -17.371163
LeftToeBase 9.846086 -0.000000 -0.000000
Spine -3.670208 21.721728 -4.940824
RightShoulder 12.071666 17.999697 -39.891401
RightArm 73.909929 23.628916 123.556465
RightForeArm 93.477302 -0.000000 116.555440
RightHand 24.576861 0.000000 -15.428884
RightHandThumb1 -24.326973 -0.000000 -32.862282
LeftShoulder 0.943131 34.325023 3.190958
LeftArm 51.726317 26.961389 -53.091316
LeftForeArm 23.414303 -0.000000 18.554717
LeftHand -13.124540 -0.000000 -9.625943
LeftHandThumb1 -26.253704 0.000000 33.147579
Head -6.681186 -18.552215 -0.320058
701
root 2.240595 37.109923 2.475116 -0.609574 1.591767 1.477044
RightUpLeg 9.467583 -9.044141 -3.433745
RightLeg -5.176828 -0.000000 0.000000
RightFoot -12.775064 -15.594652 17.372364
RightToeBase 15.431301 -0.000000 -0.000000
LeftUpLeg 6.396342 -2.523105 1.758634
LeftLeg -2.253091 -0.000000 0.000000
LeftFoot -9.390345 13.557977 -17.326040
LeftToeBase 9.874085 -0.000000 -0.000000
Spine -3.927602 21.766222 -4.968573
RightShoulder 11.503099 17.762512 -39.533960
RightArm 74.861663 24.695460 124.956978
RightForeArm 93.740182 -0.000000 116.709295
RightHand 24.978837 0.000000 -16.162238
RightHandThumb1 -24.326973 -0.000000 -32.862282
LeftShoulder 1.003209 34.220773 3.256482
LeftArm 51.640011 27.120043 -53.039112
LeftForeArm 23.252871 -0.000000 18.861236
LeftHand -12.953337 -0.000000 -9.685354
LeftHandThumb1 -26.253704 0.000000 33.147579
Head -6.482343 -18.739193 -0.605508
702
root 2.262751 37.114705 2.466489 -0.433247 2.085651 1.457069
RightUpLeg 9.373610 -9.412019 -3.417666
RightLeg -5.218335 -0.000000 0.000000
RightFoot -12.746505 -15.718359 17.460182
RightToeBase 15.384680 -0.000000 -0.000000
LeftUpLeg 6.150511 -2.849073 1.764277
LeftLeg -2.280815 -0.000000 0.000000
LeftFoot -9.280331 13.447983 -17.227080
LeftToeBase 9.892146 -0.000000 -0.000000
Spine -4.152435 21.714078 -5.004196
RightShoulder 10.935391 17.656072 -39.109014
RightArm 75.465528 25.840028 125.614879
RightForeArm 93.955726 -0.000000 116.817927
RightHand 25.193132 -0.000000 -17.313601
RightHandThumb1 -24.326973 -0.000000 -32.862282
LeftShoulder 1.017552 34.186475 3.315599
LeftArm 51.595324 27.225383 -52.996048
LeftForeArm 23.191736 0.000000 19.160016
LeftHand -12.914597 -0.000000 -9.770638
LeftHandThumb1 -26.253704 0.000000 33.147579
Head -6.295479 -18.746239 -0.926786
